<svg xmlns="http://www.w3.org/2000/svg" fill="none" viewBox="0 0 37 36"><path fill="#231815" d="M31.28 36H5.44A5.37 5.37 0 0 1 0 30.67V5.33A5.37 5.37 0 0 1 5.44 0h25.84a5.37 5.37 0 0 1 5.44 5.33v25.34A5.41 5.41 0 0 1 31.28 36Z"/><path fill="#fff" d="M18.1 11.65s3.6-2.14 5.79-3.36c2.19-1.22 3.43-1.62 4.67-1.74 1.24-.06 2.66.58 2.66.58L27.26 4.7s-.53-.35-2.01-.18c-1.48.18-2.25.58-3.2 1.05-.94.52-7.27 4.17-7.27 4.17l3.31 1.91ZM27.55 10.03s1.84 2.5.42 6.9A15.16 15.16 0 0 1 23 24c-.18.17-2.25 1.33-2.25 1.33l.06 3.48s6.63-2.26 9.4-8.52c2.49-5.5.9-8.46-.35-9.74-.7-.75-2.3-.52-2.3-.52ZM18.1 28.75l-3.32-1.9V9.8l3.31 1.85v17.1ZM7.98 23.77l-3.3-1.97V4.8l3.24 1.8.06 17.16Z"/><path fill="#fff" d="M4.67 21.8s-.83 7.19 5.15 9.8c3.42 1.5 5.97.63 7.15-.53.95-.92 1.06-2.32 1.06-2.32l-3.3-1.97s0 .7-.54 1.22c-.59.64-1.54 1.28-3.67.23-2.72-1.39-2.6-4.46-2.6-4.46L4.67 21.8ZM7.92 6.6l2.66-1.32-3.01-1.63-2.9 1.16 3.25 1.8Z"/></svg>