<svg xmlns="http://www.w3.org/2000/svg" fill="none" viewBox="0 0 217 57"><path fill="#231815" d="M48.0305 56.3837H8.35314C3.72259 56.3837 0 52.6611 0 48.0305V8.35315C0 3.72261 3.72259 0 8.35314 0H48.0305c4.6306 0 8.3532 3.72261 8.3532 8.35315V48.0305c0 4.6306-3.8134 8.3532-8.3532 8.3532Z"/><path fill="#fff" d="M27.7833 18.2499s5.5384-3.3594 8.8979-5.2661c3.3594-1.9067 5.2661-2.5423 7.1728-2.7238 1.9067-.0908 4.0857.9079 4.0857.9079l-6.0832-3.81339s-.8172-.54477-3.0871-.27238c-2.2698.27238-3.4502.90795-4.9029 1.63431-1.4527.81715-11.1678 6.53726-11.1678 6.53726l5.0846 2.9962ZM42.3103 15.7075s2.8147 3.9042.6356 10.8046c-2.1791 6.9004-7.2636 10.8046-7.6268 11.077-.2724.2724-3.4502 2.0883-3.4502 2.0883l.0908 5.4477s10.169-3.541 14.4364-13.3469c3.8134-8.6255 1.3619-13.2561-.5448-15.2535-1.0895-1.1804-3.541-.8172-3.541-.8172Z"/><path fill="#fff" d="m27.7833 45.0343-5.0846-2.9962V15.3444l5.0846 2.9054v26.7845ZM12.2571 37.226l-5.08449-3.0871V7.53601l4.99369 2.81469.0908 26.8753Z"/><path fill="#fff" d="M7.17268 34.139S5.90155 45.3976 15.0718 49.4834c5.2662 2.3607 9.1703.9987 10.9862-.8172 1.4527-1.4527 1.6343-3.6318 1.6343-3.6318l-5.0845-3.087s0 1.0896-.8171 1.9067c-.908.9988-2.3607 1.9975-5.6293.3632-4.1766-2.1791-3.995-6.9912-3.995-6.9912L7.17268 34.139ZM12.1666 10.3506l4.0857-2.08824-4.6305-2.54227-4.44895 1.8159 4.99375 2.81461Z"/><path fill="#231815" d="M211.916 43.4908h1.997v.454h-.817v2.0883h-.454v-2.0883h-.817l.091-.454ZM214.276 43.4908h.545l.817 1.6344.817-1.6344H217v2.5423h-.454v-1.8159l-.817 1.5435h-.273l-.817-1.5435v1.8159h-.363v-2.5423ZM209.192 43.6724v2.5423h-11.077c-2.724 0-2.724 0-2.724 2.6331 0 3.9041 0 3.9041 3.813 3.9041 1.998 0 3.995-.0908 5.902 0 1.453.0908 1.907-.4539 1.725-1.8159-.091-.8171 0-1.7251 0-2.7238h2.815c0 1.5435.09 2.9962 0 4.5397-.091 1.5435-1.09 2.4515-2.543 2.5423-3.995.0908-7.899.0908-11.894 0-1.816 0-2.724-1.1803-2.724-2.9962v-5.5385c0-1.9975.908-2.9963 2.815-3.0871 4.631-.0908 9.17 0 13.892 0ZM68.4595 24.4238h2.8147v8.7163c0 .1816.1816.3632.3632.3632h10.9862c.1816 0 .3631-.1816.3631-.3632v-8.7163h2.9055c0 3.1779.0908 6.2649 0 9.3519 0 1.4527-.9988 2.3607-2.3607 2.3607-4.3581.0908-8.2623.0908-12.7113 0-1.4527 0-2.3607-.9988-2.3607-2.5423-.0908-2.9962 0-6.0832 0-9.1703ZM131.834 43.6724h2.815v8.5347c0 .1816.182.3632.363.3632h12.712v2.633h-12.621c-2.542 0-3.359-.9987-3.359-3.2686.09-2.4515.09-5.5385.09-8.2623ZM168.425 43.7633h2.633v11.531h-2.633v-11.531ZM125.751 30.0532s.454-.7264.454-1.0895c.545-2.1791-.272-4.449-2.451-4.5398-4.903-.1816-9.806-.0908-14.891-.0908v11.7126h13.71c3.541 0 4.086-2.6331 3.541-5.0845 0-.2724-.363-.908-.363-.908Zm-2.996 3.3594-10.805.0908v-2.1791h10.805c.182 0 .363.1816.363.3632v1.3619c0 .1816-.181.3632-.363.3632Zm0-4.2673-10.805.0908V27.057h10.805c.182 0 .363.1816.363.3632v1.3619c0 .1816-.181.3632-.363.3632ZM141.549 26.6029c-.908-1.8159-2.269-2.1791-4.085-2.1791-1.907 0-3.178.3632-4.086 2.1791 0 0-3.45 6.1741-5.448 9.5335h3.541l4.903-8.8979c.091-.0908.182-.1816.363-.1816h1.635c.09 0 .272.0908.363.1816l4.903 8.8979h3.541c-2.179-3.3594-5.72-9.5335-5.63-9.5335ZM165.701 24.4239h-2.996v9.0795s-.454.0908-1.09-.4539c-1.543-1.4528-4.994-5.6293-5.448-6.0833 0 0 0-.0908-.09-.0908-.273-.3632-.545-.6356-.636-.7264-1.089-1.0895-1.725-1.6343-3.723-1.8159h-2.633v11.7126h2.997v-9.0795s.454-.0908 1.089.454c1.544 1.4527 4.994 5.6293 5.448 6.0832 0 0 0 .0908.091.0908.272.3632.544.6356.635.7264 1.09 1.0895 1.725 1.6343 3.723 1.8159h2.633V24.4239ZM85.8012 45.9424c0-1.3619-.9987-2.1791-2.5422-2.1791H68.187v11.531h15.072c1.4527 0 2.4514-.908 2.5422-2.1791v-7.1728Zm-2.8146 1.5435v4.9029c0 .1816-.1816.3632-.3632.3632H71.3648c-.1816 0-.3632-.1816-.3632-.3632v-5.6293c0-.1816.1816-.3631.3632-.3631H82.805c.1816 0 .1816.1815.1816.3631v.7264ZM190.125 43.6723h-2.996v9.0795s-.454.0908-1.09-.4539c-1.544-1.4528-4.994-5.6293-5.448-6.0833l-.091-.0908c-.272-.3632-.544-.6356-.635-.7264-1.09-1.0895-1.725-1.6343-3.723-1.8159h-2.633v11.7126h2.997v-9.0795s.453-.0908 1.089.454c1.544 1.4527 4.994 5.6293 5.448 6.0832l.091.0908c.272.3632.544.6356.635.7264 1.09 1.0895 1.725 1.6343 3.723 1.8159h2.633V43.6723ZM108.046 43.6724c-.454 2.4514-1.18 5.6292-1.725 8.0807-.091.5448-.272.908-.726.908-.545 0-.545-.3632-.817-.908 0 0-1.816-4.8121-2.724-6.9004-.363-.8172-.908-1.1803-1.725-1.1803H98.1496c-.8172 0-1.362.3631-1.7251 1.1803-.908 2.0883-2.7239 6.9004-2.7239 6.9004-.1816.5448-.2724.908-.8171.908-.454 0-.6356-.3632-.7264-.908-.5448-2.5422-1.1803-5.6293-1.7251-8.0807h-3.087c.7263 3.1778 1.4527 6.174 2.0883 9.0795.2723 1.2711.6355 2.5422 2.2698 2.4514h2.4515c.9079 0 1.3619-.6355 1.8159-1.9067l2.6331-6.9912c.2723-.7263.3631-.8171.5447-.8171.1816 0 .3632.0908.5448.8171l2.6329 6.9912c.454 1.2712.908 1.9067 1.816 1.9067h2.452c1.634 0 1.997-1.1803 2.269-2.4514.636-2.9055 1.362-5.9925 2.089-9.0795h-2.906ZM128.384 48.4845h-12.983c-.273 0-.454-.1816-.454-.3632v-1.3619c0-.1816.181-.3632.454-.3632h13.619v-2.633c-4.994 0-9.897-.0908-14.891.0908-2.088.0908-2.633 1.9975-2.633 4.3581v2.2699c0 2.4515.182 4.9937 3.723 4.9937h13.71v-2.633H115.31c-.273 0-.454-.1816-.454-.3632V50.936c0-.1816.181-.3632.454-.3632h13.619v-2.0883h-.545ZM149.812 43.6724h2.814v8.5347c0 .1816.182.3632.364.3632h12.711v2.633H153.08c-2.542 0-3.359-.9987-3.359-3.2686.091-2.4515.091-5.5385.091-8.2623ZM101.327 31.5967h1.362c2.452-.0908 2.724-1.362 2.724-3.541 0-1.9975-.545-3.4503-2.815-3.5411H87.9805v11.7126h2.7238v-4.5397h6.6281l4.9026 4.5397h3.814c0-.0908-4.722-4.6305-4.722-4.6305Zm-10.5319-2.4515v-2.1791h10.8959c.181 0 .363.1816.363.3632v1.3619c0 .1816-.182.3632-.363.3632l-10.8959.0908Z"/></svg>